<?xml version="1.0" encoding="iso-8859-1"?>
<!-- Generator: Adobe Illustrator 19.0.0, SVG Export Plug-In . SVG Version: 6.00 Build 0)  -->
<svg version="1.1" id="Capa_1" xmlns="http://www.w3.org/2000/svg" xmlns:xlink="http://www.w3.org/1999/xlink" x="0px" y="0px"
	 viewBox="0 0 512 512" style="enable-background:new 0 0 512 512;" xml:space="preserve">
<g>
	<g>
		<path d="M434.243,6.477c-2.543-3.667-6.584-6.018-11.027-6.416c-4.44-0.4-8.839,1.194-11.994,4.35L231.747,183.886l-36.176-36.175
			c12.269-21.622,9.212-49.65-9.201-68.062c-22.1-22.1-58.057-22.1-80.157,0c-22.1,22.099-22.1,58.058,0,80.157
			c11.05,11.05,25.564,16.575,40.079,16.575c9.672,0,19.337-2.468,27.983-7.374l36.176,36.175L30.976,384.658
			c-3.156,3.156-4.749,7.549-4.351,11.994c0.399,4.445,2.749,8.484,6.417,11.028c48.131,33.385,105.657,51.19,164.216,51.19
			c8.106,0,16.231-0.341,24.354-1.029c17.526-1.485,34.785-4.588,51.581-9.188v48.289c0,8.316,6.742,15.059,15.059,15.059h168.382
			c4.559,0,8.873-2.066,11.732-5.618c2.859-3.552,3.953-8.207,2.98-12.661l-35.391-161.682
			c27.417-40.566,44.279-87.737,48.451-136.992C490.065,128.239,472.251,61.27,434.243,6.477z M165.074,138.509
			c-10.356,10.355-27.208,10.355-37.565,0c-10.355-10.356-10.355-27.208,0-37.565c5.178-5.178,11.981-7.767,18.782-7.767
			s13.604,2.589,18.782,7.767C175.429,111.301,175.429,128.153,165.074,138.509z M437.922,481.883H303.311V438.59
			c36.329-14.403,69.67-36.14,97.687-64.157c3.745-3.745,7.364-7.595,10.882-11.524L437.922,481.883z M379.701,353.137
			c-84.07,84.07-213.547,99.513-314.227,39.615L419.317,38.909C479.213,139.59,463.772,269.065,379.701,353.137z"/>
	</g>
</g>
<g>
</g>
<g>
</g>
<g>
</g>
<g>
</g>
<g>
</g>
<g>
</g>
<g>
</g>
<g>
</g>
<g>
</g>
<g>
</g>
<g>
</g>
<g>
</g>
<g>
</g>
<g>
</g>
<g>
</g>
</svg>
