<svg xmlns="http://www.w3.org/2000/svg" height="511pt" version="1.1" viewBox="-71 1 511 511.999" width="511pt">
<g id="surface1">
<path d="M 351.027344 276.082031 C 351.027344 262.253906 346.257812 249.515625 338.28125 239.429688 C 356.414062 229.304688 368.703125 209.921875 368.703125 187.71875 C 368.703125 155.082031 342.152344 128.53125 309.519531 128.53125 L 249.003906 128.53125 L 249.003906 63.199219 C 249.003906 28.351562 220.652344 0 185.804688 0 C 150.957031 0 122.605469 28.351562 122.605469 63.199219 L 122.605469 128.53125 L 79.765625 128.53125 C 44.917969 128.53125 16.566406 156.886719 16.566406 191.734375 C 16.566406 204.054688 20.207031 215.984375 26.769531 226.113281 C 10.644531 237.730469 0.5 256.628906 0.5 277.421875 C 0.5 298.210938 10.644531 317.113281 26.773438 328.730469 C 20.207031 338.855469 16.566406 350.785156 16.566406 363.109375 C 16.566406 383.902344 26.710938 402.800781 42.835938 414.417969 C 36.273438 424.542969 32.632812 436.476562 32.632812 448.800781 C 32.632812 483.648438 60.984375 512 95.832031 512 L 249.824219 512 C 282.457031 512 309.007812 485.449219 309.007812 452.816406 C 309.007812 441.925781 306.050781 431.714844 300.902344 422.941406 C 329.25 418.566406 351.027344 394.003906 351.027344 364.449219 C 351.027344 346.902344 343.351562 331.113281 331.179688 320.265625 C 343.351562 309.417969 351.027344 293.632812 351.027344 276.082031 Z M 152.605469 63.199219 C 152.605469 44.894531 167.5 30 185.804688 30 C 204.113281 30 219.003906 44.894531 219.003906 63.199219 L 219.003906 128.53125 L 152.605469 128.53125 Z M 309.519531 216.898438 L 196.804688 216.898438 C 188.523438 216.898438 181.804688 223.617188 181.804688 231.898438 C 181.804688 240.183594 188.523438 246.898438 196.804688 246.898438 L 291.84375 246.898438 C 307.9375 246.898438 321.027344 259.992188 321.027344 276.082031 C 321.027344 292.175781 307.9375 305.265625 291.84375 305.265625 L 196.804688 305.265625 C 188.523438 305.265625 181.804688 311.984375 181.804688 320.265625 C 181.804688 328.550781 188.523438 335.265625 196.804688 335.265625 L 291.84375 335.265625 C 307.9375 335.265625 321.027344 348.359375 321.027344 364.449219 C 321.027344 380.542969 307.9375 393.636719 291.84375 393.636719 L 214.476562 393.636719 C 206.195312 393.636719 199.476562 400.351562 199.476562 408.636719 C 199.476562 416.917969 206.195312 423.636719 214.476562 423.636719 L 249.824219 423.636719 C 265.917969 423.636719 279.007812 436.726562 279.007812 452.816406 C 279.007812 468.910156 265.917969 482.003906 249.824219 482.003906 L 95.832031 482.003906 C 77.527344 482.003906 62.632812 467.109375 62.632812 448.800781 C 62.632812 438.199219 67.773438 428.144531 76.386719 421.902344 C 81.085938 418.496094 83.398438 412.683594 82.324219 406.980469 C 81.25 401.273438 76.980469 396.703125 71.363281 395.242188 C 56.761719 391.4375 46.566406 378.226562 46.566406 363.113281 C 46.566406 352.511719 51.707031 342.457031 60.320312 336.214844 C 65.019531 332.808594 67.332031 326.996094 66.257812 321.292969 C 65.183594 315.589844 60.914062 311.015625 55.296875 309.554688 C 40.695312 305.75 30.496094 292.539062 30.496094 277.425781 C 30.496094 262.3125 40.695312 249.097656 55.292969 245.296875 C 60.910156 243.835938 65.179688 239.261719 66.253906 233.558594 C 67.332031 227.855469 65.015625 222.042969 60.316406 218.636719 C 51.703125 212.394531 46.5625 202.339844 46.5625 191.738281 C 46.5625 173.429688 61.457031 158.535156 79.761719 158.535156 L 309.515625 158.535156 C 325.609375 158.535156 338.699219 171.628906 338.699219 187.722656 C 338.703125 203.808594 325.609375 216.898438 309.519531 216.898438 Z M 309.519531 216.898438 " style=" stroke:none;fill-rule:nonzero;fill:rgb(0%,0%,0%);fill-opacity:1;" />
</g>
</svg>