<?xml version="1.0" encoding="iso-8859-1"?>
<!-- Generator: Adobe Illustrator 19.0.0, SVG Export Plug-In . SVG Version: 6.00 Build 0)  -->
<svg version="1.1" id="Capa_1" xmlns="http://www.w3.org/2000/svg" xmlns:xlink="http://www.w3.org/1999/xlink" x="0px" y="0px"
	 viewBox="0 0 512 512" style="enable-background:new 0 0 512 512;" xml:space="preserve">
<g>
	<g>
		<path d="M451.186,60.815c-81.084-81.086-213.021-81.087-294.107,0c-66.926,66.925-78.605,168.49-35.052,247.515L16.882,413.474
			c-22.509,22.509-22.509,59.135,0,81.645C28.137,506.374,42.92,512,57.704,512s29.567-5.626,40.822-16.881l105.146-105.146
			c31.152,17.169,65.805,25.762,100.46,25.762c53.256,0,106.512-20.271,147.054-60.814
			C532.271,273.836,532.271,141.899,451.186,60.815z M76.932,473.525c-10.604,10.605-27.854,10.602-38.458,0.001
			c-10.603-10.604-10.603-27.855,0-38.459l100.634-100.633c5.469,7.12,11.455,13.97,17.971,20.485
			c6.517,6.517,13.366,12.503,20.486,17.972L76.932,473.525z M429.593,333.328c-69.18,69.179-181.742,69.178-250.922,0
			c-69.179-69.179-69.179-181.742,0-250.921c34.59-34.589,80.025-51.885,125.461-51.885c45.435,0,90.87,17.295,125.46,51.885
			C498.772,151.587,498.772,264.149,429.593,333.328z"/>
	</g>
</g>
<g>
	<g>
		<path d="M406.9,105.1c-56.666-56.666-148.867-56.667-205.535,0c-27.451,27.45-42.568,63.947-42.568,102.768
			c0,38.821,15.118,75.317,42.568,102.768c28.333,28.333,65.55,42.5,102.767,42.5c37.218,0,74.435-14.166,102.768-42.5
			c27.451-27.451,42.568-63.947,42.568-102.768C449.468,169.047,434.351,132.55,406.9,105.1z M385.307,289.043
			c-44.76,44.762-117.59,44.76-162.349,0c-21.684-21.683-33.624-50.512-33.624-81.175c0-30.664,11.94-59.493,33.624-81.175
			c22.38-22.38,51.777-33.57,81.174-33.57c29.398,0,58.795,11.19,81.175,33.57c21.682,21.682,33.624,50.511,33.624,81.175
			C418.931,238.532,406.989,267.36,385.307,289.043z"/>
	</g>
</g>
<g>
</g>
<g>
</g>
<g>
</g>
<g>
</g>
<g>
</g>
<g>
</g>
<g>
</g>
<g>
</g>
<g>
</g>
<g>
</g>
<g>
</g>
<g>
</g>
<g>
</g>
<g>
</g>
<g>
</g>
</svg>
