<?xml version="1.0" encoding="iso-8859-1"?>
<!-- Generator: Adobe Illustrator 19.0.0, SVG Export Plug-In . SVG Version: 6.00 Build 0)  -->
<svg version="1.1" id="Capa_1" xmlns="http://www.w3.org/2000/svg" xmlns:xlink="http://www.w3.org/1999/xlink" x="0px" y="0px"
	 viewBox="0 0 511.999 511.999" style="enable-background:new 0 0 511.999 511.999;" xml:space="preserve">
<g>
	<g>
		<path style="fill:#fff;" d="M341.797,0H170.202c-24.857,0-45.08,20.224-45.08,45.08v421.839c0,24.857,20.222,45.08,45.08,45.08h171.595
			c24.857,0,45.08-20.224,45.08-45.08V45.08C386.878,20.223,366.656,0,341.797,0z M156.369,45.08
			c0-7.627,6.206-13.832,13.832-13.832h171.595c7.626,0,13.832,6.206,13.832,13.832v24.07h-199.26V45.08z M355.63,466.919
			c0,7.628-6.206,13.833-13.833,13.833H170.202c-7.627,0-13.832-6.206-13.832-13.832V100.398H355.63V466.919z"/>
	</g>
</g>
<g>
	<g>
		<path style="fill:#fff;" d="M194.902,124.764c-8.172,0-16.002,7.186-15.624,15.624c0.379,8.465,6.865,15.624,15.624,15.624
			c8.172,0,16.002-7.186,15.624-15.624C210.147,131.922,203.661,124.764,194.902,124.764z"/>
	</g>
</g>
<g>
	<g>
		<path style="fill:#fff;" d="M255.999,124.764c-8.172,0-16.002,7.186-15.624,15.624c0.379,8.465,6.865,15.624,15.624,15.624
			c8.172,0,16.002-7.186,15.624-15.624C271.244,131.922,264.758,124.764,255.999,124.764z"/>
	</g>
</g>
<g>
	<g>
		<path style="fill:#fff;" d="M317.104,124.764c-8.172,0-16.002,7.186-15.624,15.624c0.379,8.465,6.865,15.624,15.624,15.624
			c8.172,0,16.002-7.186,15.624-15.624C332.349,131.922,325.863,124.764,317.104,124.764z"/>
	</g>
</g>
<g>
	<g>
		<path style="fill:#fff;" d="M194.902,396.242c-8.628,0-15.624,6.995-15.624,15.624v23.416c0,8.628,6.995,15.624,15.624,15.624
			c8.629,0,15.624-6.995,15.624-15.624v-23.416C210.526,403.237,203.531,396.242,194.902,396.242z"/>
	</g>
</g>
<g>
	<g>
		<path style="fill:#fff;" d="M256.003,396.242c-8.629,0-15.624,6.995-15.624,15.624v23.416c0,8.628,6.995,15.624,15.624,15.624
			c8.628,0,15.624-6.995,15.624-15.624v-23.416C271.626,403.237,264.631,396.242,256.003,396.242z"/>
	</g>
</g>
<g>
	<g>
		<path style="fill:#fff;" d="M317.104,396.242c-8.629,0-15.624,6.995-15.624,15.624v23.416c0,8.628,6.995,15.624,15.624,15.624
			c8.628,0,15.624-6.995,15.624-15.624v-23.416C332.728,403.237,325.734,396.242,317.104,396.242z"/>
	</g>
</g>
<g>
	<g>
		<path style="fill:#fff;" d="M255.999,248.064c-32.38,0-58.723,26.344-58.723,58.723c0,32.379,26.343,58.723,58.723,58.723
			c32.38,0,58.723-26.344,58.723-58.723C314.722,274.407,288.379,248.064,255.999,248.064z M255.999,334.262
			c-15.15,0-27.475-12.325-27.475-27.475c0-15.15,12.325-27.475,27.475-27.475c15.15,0,27.475,12.325,27.475,27.475
			C283.474,321.937,271.149,334.262,255.999,334.262z"/>
	</g>
</g>
<g>
	<g>
		<path style="fill:#fff;" d="M317.104,185.032H194.902c-8.628,0-15.624,6.995-15.624,15.624c0,8.629,6.995,15.624,15.624,15.624h122.202
			c8.628,0,15.624-6.995,15.624-15.624C332.728,192.027,325.734,185.032,317.104,185.032z"/>
	</g>
</g>
<g>
</g>
<g>
</g>
<g>
</g>
<g>
</g>
<g>
</g>
<g>
</g>
<g>
</g>
<g>
</g>
<g>
</g>
<g>
</g>
<g>
</g>
<g>
</g>
<g>
</g>
<g>
</g>
<g>
</g>
</svg>
