<svg xmlns="http://www.w3.org/2000/svg" height="512pt" version="1.1" viewBox="0 0 512.00072 512" width="512pt">
<g id="surface1">
<path d="M 511.265625 185.464844 C 509.5 180.03125 504.808594 176.074219 499.15625 175.253906 L 340.4375 152.191406 L 269.453125 8.363281 C 266.925781 3.242188 261.710938 0 256 0 C 250.289062 0 245.078125 3.242188 242.550781 8.363281 L 171.570312 152.191406 L 12.84375 175.253906 C 7.195312 176.074219 2.5 180.03125 0.734375 185.464844 C -1.03125 190.894531 0.441406 196.855469 4.53125 200.839844 L 119.382812 312.792969 L 92.269531 470.871094 C 91.304688 476.5 93.621094 482.1875 98.238281 485.542969 C 102.859375 488.898438 108.980469 489.339844 114.035156 486.683594 L 200.835938 441.050781 L 200.835938 497 C 200.835938 505.285156 207.550781 512 215.835938 512 C 224.117188 512 230.832031 505.285156 230.832031 497 L 230.832031 431.21875 L 281.167969 431.21875 L 281.167969 497 C 281.167969 505.285156 287.882812 512 296.167969 512 C 304.453125 512 311.167969 505.285156 311.167969 497 L 311.167969 441.050781 L 397.964844 486.683594 C 400.160156 487.839844 402.558594 488.40625 404.945312 488.40625 C 408.054688 488.40625 411.148438 487.441406 413.761719 485.542969 C 418.382812 482.1875 420.695312 476.5 419.730469 470.871094 L 392.617188 312.792969 L 507.46875 200.839844 C 511.558594 196.855469 513.03125 190.894531 511.265625 185.464844 Z M 230.835938 401.21875 L 230.835938 351.332031 L 281.167969 351.332031 L 281.167969 401.21875 Z M 366.03125 296.8125 C 362.496094 300.261719 360.882812 305.226562 361.714844 310.089844 L 385.023438 445.988281 L 311.167969 407.160156 L 311.167969 256 C 311.167969 247.714844 304.453125 241 296.167969 241 C 287.882812 241 281.167969 247.714844 281.167969 256 L 281.167969 321.332031 L 230.832031 321.332031 L 230.832031 256 C 230.832031 247.714844 224.117188 241 215.835938 241 C 207.550781 241 200.835938 247.714844 200.835938 256 L 200.835938 407.160156 L 126.976562 445.988281 L 150.285156 310.089844 C 151.121094 305.226562 149.507812 300.261719 145.972656 296.8125 L 47.238281 200.570312 L 183.6875 180.742188 C 188.574219 180.035156 192.796875 176.964844 194.980469 172.539062 L 256 48.894531 L 317.023438 172.539062 C 319.210938 176.964844 323.433594 180.035156 328.320312 180.742188 L 464.765625 200.570312 Z M 366.03125 296.8125 " style=" stroke:none;fill-rule:nonzero;fill:rgb(0%,0%,0%);fill-opacity:1;" />
</g>
</svg>