<?xml version="1.0" encoding="iso-8859-1"?>
<!-- Generator: Adobe Illustrator 19.0.0, SVG Export Plug-In . SVG Version: 6.00 Build 0)  -->
<svg version="1.1" id="Capa_1" xmlns="http://www.w3.org/2000/svg" xmlns:xlink="http://www.w3.org/1999/xlink" x="0px" y="0px"
	 viewBox="0 0 512.002 512.002" style="enable-background:new 0 0 512.002 512.002;" xml:space="preserve">
<g>
	<g>
		<path style="fill:#fff;" d="M457.641,222.827H157.437l274.25-122.104c3.662-1.63,6.526-4.648,7.963-8.391c1.436-3.743,1.327-7.903-0.303-11.565
			L407.381,8.972c-3.395-7.627-12.329-11.057-19.955-7.661L48.217,152.338c-7.626,3.395-11.056,12.329-7.66,19.955l30.659,68.861
			v255.733c0,8.347,6.767,15.114,15.114,15.114h371.311c8.347,0,15.114-6.767,15.114-15.114V237.942
			C472.756,229.594,465.989,222.827,457.641,222.827z M377.252,253.056l-44.104,48.362h-62.663l44.104-48.362H377.252z
			 M273.676,253.056l-44.104,48.362h-62.663l44.104-48.362H273.676z M170.102,253.056l-44.104,48.362h-24.554v-48.362H170.102z
			 M363.657,44.983l22.256-9.909l19.671,44.18l-62.547,27.848L363.657,44.983z M269.036,87.112l57.246-25.488l-20.62,62.119
			l-57.246,25.488L269.036,87.112z M174.416,129.24l57.245-25.488l-20.62,62.119l-57.245,25.487L174.416,129.24z M74.32,173.804
			l62.721-27.924l-20.62,62.118l-22.431,9.987L74.32,173.804z M442.527,481.772H101.445V331.647h341.082V481.772z M442.527,301.418
			H374.06l44.105-48.362h24.362V301.418z"/>
	</g>
</g>
<g>
</g>
<g>
</g>
<g>
</g>
<g>
</g>
<g>
</g>
<g>
</g>
<g>
</g>
<g>
</g>
<g>
</g>
<g>
</g>
<g>
</g>
<g>
</g>
<g>
</g>
<g>
</g>
<g>
</g>
</svg>
