<svg xmlns="http://www.w3.org/2000/svg" height="512pt" version="1.1" viewBox="0 0 512.00099 512" width="512pt">
<g id="surface1">
<path d="M 256 80.332031 C 181.285156 80.332031 120.5 141.117188 120.5 215.832031 C 120.5 290.546875 181.285156 351.332031 256 351.332031 C 330.714844 351.332031 391.5 290.546875 391.5 215.832031 C 391.5 141.117188 330.714844 80.332031 256 80.332031 Z M 256 321.332031 C 197.828125 321.332031 150.5 274.003906 150.5 215.832031 C 150.5 157.660156 197.828125 110.332031 256 110.332031 C 314.171875 110.332031 361.5 157.660156 361.5 215.832031 C 361.5 274.003906 314.171875 321.332031 256 321.332031 Z M 256 321.332031 " style=" stroke:none;fill-rule:nonzero;fill:rgb(0%,0%,0%);fill-opacity:1;" />
<path d="M 316.25 200.832031 L 195.75 200.832031 C 187.464844 200.832031 180.75 207.546875 180.75 215.832031 C 180.75 257.324219 214.507812 291.082031 256 291.082031 C 297.492188 291.082031 331.25 257.324219 331.25 215.832031 C 331.25 207.546875 324.535156 200.832031 316.25 200.832031 Z M 256 261.082031 C 236.304688 261.082031 219.507812 248.433594 213.304688 230.832031 L 298.695312 230.832031 C 292.492188 248.433594 275.695312 261.082031 256 261.082031 Z M 256 261.082031 " style=" stroke:none;fill-rule:nonzero;fill:rgb(0%,0%,0%);fill-opacity:1;" />
<path d="M 296.167969 178.621094 C 300.109375 178.621094 303.980469 177.019531 306.769531 174.21875 C 309.570312 171.429688 311.167969 167.570312 311.167969 163.621094 C 311.167969 159.667969 309.570312 155.800781 306.769531 153.011719 C 303.980469 150.21875 300.121094 148.621094 296.167969 148.621094 C 292.21875 148.621094 288.351562 150.21875 285.558594 153.011719 C 282.769531 155.800781 281.167969 159.667969 281.167969 163.621094 C 281.167969 167.558594 282.769531 171.429688 285.558594 174.21875 C 288.351562 177.019531 292.21875 178.621094 296.167969 178.621094 Z M 296.167969 178.621094 " style=" stroke:none;fill-rule:nonzero;fill:rgb(0%,0%,0%);fill-opacity:1;" />
<path d="M 215.832031 178.621094 C 219.78125 178.621094 223.648438 177.019531 226.441406 174.21875 C 229.230469 171.429688 230.832031 167.570312 230.832031 163.621094 C 230.832031 159.667969 229.230469 155.800781 226.441406 153.011719 C 223.648438 150.21875 219.78125 148.621094 215.832031 148.621094 C 211.878906 148.621094 208.019531 150.21875 205.230469 153.011719 C 202.429688 155.800781 200.832031 159.667969 200.832031 163.621094 C 200.832031 167.570312 202.429688 171.429688 205.230469 174.21875 C 208.019531 177.019531 211.890625 178.621094 215.832031 178.621094 Z M 215.832031 178.621094 " style=" stroke:none;fill-rule:nonzero;fill:rgb(0%,0%,0%);fill-opacity:1;" />
<path d="M 456.832031 0 L 55.167969 0 C 24.746094 0 0 24.746094 0 55.167969 L 0 376.5 C 0 406.917969 24.746094 431.664062 55.167969 431.664062 L 206.5625 431.664062 L 242.585938 503.707031 C 245.125 508.789062 250.320312 512 256.003906 512 C 261.683594 512 266.878906 508.789062 269.417969 503.707031 L 305.4375 431.664062 L 456.832031 431.664062 C 487.253906 431.664062 512 406.917969 512 376.5 L 512 55.167969 C 512 24.746094 487.253906 0 456.832031 0 Z M 482 376.5 C 482 390.375 470.710938 401.664062 456.832031 401.664062 L 296.167969 401.664062 C 290.484375 401.664062 285.292969 404.875 282.75 409.957031 L 256 463.457031 L 229.25 409.957031 C 226.707031 404.875 221.515625 401.664062 215.832031 401.664062 L 55.167969 401.664062 C 41.289062 401.664062 30 390.375 30 376.5 L 30 55.167969 C 30 41.289062 41.289062 30 55.167969 30 L 456.832031 30 C 470.710938 30 482 41.289062 482 55.167969 Z M 482 376.5 " style=" stroke:none;fill-rule:nonzero;fill:rgb(0%,0%,0%);fill-opacity:1;" />
</g>
</svg>