<?xml version="1.0" encoding="iso-8859-1"?>
<!-- Generator: Adobe Illustrator 19.0.0, SVG Export Plug-In . SVG Version: 6.00 Build 0)  -->
<svg version="1.1" id="Capa_1" xmlns="http://www.w3.org/2000/svg" xmlns:xlink="http://www.w3.org/1999/xlink" x="0px" y="0px"
	 viewBox="0 0 512 512" style="enable-background:new 0 0 512 512;" xml:space="preserve">
<g>
	<g>
		<path d="M496.961,53.643H15.039C6.733,53.643,0,60.376,0,68.682v312.141c0,8.305,6.733,15.039,15.039,15.039h178.797v32.417
			h-44.114c-8.305,0-15.039,6.733-15.039,15.039c0,8.305,6.733,15.039,15.039,15.039h212.557c8.305,0,15.039-6.733,15.039-15.039
			c0-8.306-6.733-15.039-15.039-15.039h-44.114v-32.417h178.797c8.305,0,15.039-6.733,15.039-15.039V68.682
			C512,60.376,505.267,53.643,496.961,53.643z M288.086,428.28h-64.172v-32.417h64.172V428.28z M481.922,365.785H30.078v-30.078
			h451.844V365.785z M481.922,305.628H30.078V83.721h451.844V305.628z"/>
	</g>
</g>
<g>
	<g>
		<path d="M149.51,105.61H92.449c-13.385,0-24.273,10.888-24.273,24.273v32.331c0,13.385,10.888,24.273,24.273,24.273h57.061
			c13.385,0,24.273-10.888,24.273-24.273v-32.331C173.783,116.499,162.895,105.61,149.51,105.61z M143.705,156.41H98.254v-20.721
			h45.451V156.41z"/>
	</g>
</g>
<g>
	<g>
		<path d="M284.531,105.61h-57.062c-13.385,0-24.273,10.888-24.273,24.273v32.331c0,13.385,10.888,24.273,24.273,24.273h57.062
			c13.385,0,24.273-10.888,24.273-24.273v-32.331C308.804,116.499,297.916,105.61,284.531,105.61z M278.726,156.41h-45.452v-20.721
			h45.452V156.41z"/>
	</g>
</g>
<g>
	<g>
		<path d="M419.551,105.61H362.49c-13.385,0-24.273,10.888-24.273,24.273v32.331c0,13.385,10.888,24.273,24.273,24.273h57.061
			c13.385,0,24.273-10.888,24.273-24.273v-32.331C443.823,116.499,432.935,105.61,419.551,105.61z M413.746,156.41h-45.451v-20.721
			h45.451V156.41z"/>
	</g>
</g>
<g>
	<g>
		<path d="M149.51,205.533H92.449c-13.385,0-24.273,10.888-24.273,24.273v32.331c0,13.384,10.888,24.273,24.273,24.273h57.061
			c13.385,0,24.273-10.889,24.273-24.273v-32.331C173.783,216.421,162.895,205.533,149.51,205.533z M143.705,256.332H98.254v-20.721
			h45.451V256.332z"/>
	</g>
</g>
<g>
	<g>
		<path d="M284.531,205.533h-57.062c-13.385,0-24.273,10.888-24.273,24.273v32.331c0,13.384,10.888,24.273,24.273,24.273h57.062
			c13.385,0,24.273-10.889,24.273-24.273v-32.331C308.804,216.421,297.916,205.533,284.531,205.533z M278.726,256.332h-45.452
			v-20.721h45.452V256.332z"/>
	</g>
</g>
<g>
	<g>
		<path d="M419.551,205.533H362.49c-13.385,0-24.273,10.888-24.273,24.273v32.331c0,13.384,10.888,24.273,24.273,24.273h57.061
			c13.385,0,24.273-10.889,24.273-24.273v-32.331C443.823,216.421,432.935,205.533,419.551,205.533z M413.746,256.332h-45.451
			v-20.721h45.451V256.332z"/>
	</g>
</g>
<g>
</g>
<g>
</g>
<g>
</g>
<g>
</g>
<g>
</g>
<g>
</g>
<g>
</g>
<g>
</g>
<g>
</g>
<g>
</g>
<g>
</g>
<g>
</g>
<g>
</g>
<g>
</g>
<g>
</g>
</svg>
