<?xml version="1.0" encoding="iso-8859-1"?>
<!-- Generator: Adobe Illustrator 19.0.0, SVG Export Plug-In . SVG Version: 6.00 Build 0)  -->
<svg version="1.1" id="Capa_1" xmlns="http://www.w3.org/2000/svg" xmlns:xlink="http://www.w3.org/1999/xlink" x="0px" y="0px"
	 viewBox="0 0 512 512" style="enable-background:new 0 0 512 512;" xml:space="preserve">
<g>
	<g>
		<path style="fill:#fff;" d="M464.87,94.55H171.373l42.831-65.608c4.624-7.085,2.631-16.576-4.454-21.201c-7.085-4.624-16.576-2.63-21.201,4.454
			l-44.787,68.604L98.974,12.194C94.348,5.111,84.858,3.115,77.772,7.74c-7.084,4.625-9.078,14.118-4.454,21.201L116.15,94.55
			H47.128C21.142,94.55,0,115.692,0,141.679v269.652c0,25.987,21.142,47.129,47.128,47.129h5.045v32.974
			c0,8.46,6.859,15.319,15.319,15.319h76.269c8.46,0,15.319-6.859,15.319-15.319V458.46h193.845v32.974
			c0,8.46,6.859,15.319,15.319,15.319h76.269c8.46,0,15.319-6.859,15.319-15.319V458.46h5.039c25.987,0,47.129-21.142,47.129-47.129
			V141.679C512,115.692,490.858,94.55,464.87,94.55z M128.443,476.115H82.812V458.46h45.631V476.115z M429.194,476.115h-45.631
			V458.46h45.631V476.115z M464.871,427.822H47.128c-9.093,0-16.49-7.398-16.49-16.491V141.679c0-9.093,7.398-16.491,16.49-16.491
			H464.87c9.093,0,16.491,7.398,16.491,16.491v269.652h0.001C481.362,420.424,473.964,427.822,464.871,427.822z"/>
	</g>
</g>
<g>
	<g>
		<path style="fill:#fff;" d="M347.917,150.719H72.176c-8.46,0-15.319,6.859-15.319,15.319v220.933c0,8.46,6.859,15.319,15.319,15.319h275.741
			c8.46,0,15.319-6.859,15.319-15.319V166.038C363.236,157.578,356.377,150.719,347.917,150.719z M332.598,371.653H87.495V181.357
			h245.103V371.653z"/>
	</g>
</g>
<g>
	<g>
		<path style="fill:#fff;" d="M422.467,174.295c-25.855,0-46.891,21.035-46.891,46.891s21.036,46.891,46.891,46.891
			c25.855,0,46.891-21.035,46.891-46.891S448.322,174.295,422.467,174.295z M422.467,237.44c-8.962,0-16.253-7.292-16.253-16.253
			c0-8.962,7.292-16.253,16.253-16.253c8.962,0,16.253,7.292,16.253,16.253C438.72,230.148,431.428,237.44,422.467,237.44z"/>
	</g>
</g>
<g>
	<g>
		<path style="fill:#fff;" d="M422.467,290.191c-25.855,0-46.891,21.035-46.891,46.891s21.036,46.891,46.891,46.891
			c25.855,0,46.891-21.035,46.891-46.891S448.322,290.191,422.467,290.191z M422.467,353.336c-8.962,0-16.253-7.292-16.253-16.253
			c0-8.962,7.292-16.253,16.253-16.253c8.962,0,16.253,7.292,16.253,16.253C438.72,346.044,431.428,353.336,422.467,353.336z"/>
	</g>
</g>
<g>
</g>
<g>
</g>
<g>
</g>
<g>
</g>
<g>
</g>
<g>
</g>
<g>
</g>
<g>
</g>
<g>
</g>
<g>
</g>
<g>
</g>
<g>
</g>
<g>
</g>
<g>
</g>
<g>
</g>
</svg>
