<?xml version="1.0" encoding="iso-8859-1"?>
<!-- Generator: Adobe Illustrator 19.0.0, SVG Export Plug-In . SVG Version: 6.00 Build 0)  -->
<svg version="1.1" id="Capa_1" xmlns="http://www.w3.org/2000/svg" xmlns:xlink="http://www.w3.org/1999/xlink" x="0px" y="0px"
	 viewBox="0 0 512 512" style="enable-background:new 0 0 512 512;" xml:space="preserve">
<g>
	<g>
		<path  style="fill:#fff;" d="M404.431,0H107.569C78.324,0,54.532,23.792,54.532,53.037v405.925c0,29.245,23.792,53.037,53.037,53.037h296.861
			c29.245,0,53.037-23.792,53.037-53.037V53.037C457.468,23.792,433.676,0,404.431,0z M427.109,458.963
			c0,12.505-10.173,22.678-22.678,22.678H107.569c-12.505,0-22.678-10.173-22.678-22.678V53.037
			c0-12.505,10.173-22.678,22.678-22.678h296.861c12.505,0,22.678,10.173,22.678,22.678V458.963z"/>
	</g>
</g>
<g>
	<g>
		<path  style="fill:#fff;" d="M390.241,51.941H121.76c-8.383,0-15.18,6.796-15.18,15.18v337.287c0,8.383,6.796,15.18,15.18,15.18h268.481
			c8.383,0,15.18-6.796,15.18-15.18V67.121C405.42,58.738,398.624,51.941,390.241,51.941z M375.061,389.229H136.94V82.3h238.122
			V389.229z"/>
	</g>
</g>
<g>
	<g>
		<path  style="fill:#fff;" d="M329.254,189.668c-7.895-2.816-16.581,1.303-19.396,9.2l-1.817,5.097l-6.56,18.399l-6.56-18.399l-1.817-5.097
			c-2.815-7.897-11.499-12.016-19.396-9.2c-7.896,2.815-12.015,11.499-9.2,19.396l22.675,63.596
			c2.155,6.046,7.88,10.081,14.298,10.081s12.143-4.037,14.298-10.081l22.675-63.596
			C341.27,201.168,337.151,192.485,329.254,189.668z"/>
	</g>
</g>
<g>
	<g>
		<path  style="fill:#fff;" d="M233.196,188.787h-45.351c-8.383,0-15.18,6.796-15.18,15.18s6.795,15.18,15.18,15.18h7.496v48.417
			c0,8.383,6.796,15.18,15.18,15.18c8.383,0,15.18-6.796,15.18-15.18v-48.417h7.497c8.383,0,15.18-6.796,15.18-15.18
			S241.579,188.787,233.196,188.787z"/>
	</g>
</g>
<g>
	<g>
		<path  style="fill:#fff;" d="M281.302,434.725h-50.605c-8.383,0-15.18,6.796-15.18,15.18c0,8.383,6.796,15.18,15.18,15.18h50.605
			c8.383,0,15.18-6.796,15.18-15.18C296.482,441.521,289.685,434.725,281.302,434.725z"/>
	</g>
</g>
<g>
</g>
<g>
</g>
<g>
</g>
<g>
</g>
<g>
</g>
<g>
</g>
<g>
</g>
<g>
</g>
<g>
</g>
<g>
</g>
<g>
</g>
<g>
</g>
<g>
</g>
<g>
</g>
<g>
</g>
</svg>
