<?xml version="1.0" encoding="iso-8859-1"?>
<!-- Generator: Adobe Illustrator 19.0.0, SVG Export Plug-In . SVG Version: 6.00 Build 0)  -->
<svg version="1.1" id="Capa_1" xmlns="http://www.w3.org/2000/svg" xmlns:xlink="http://www.w3.org/1999/xlink" x="0px" y="0px"
	 viewBox="0 0 511.999 511.999" style="enable-background:new 0 0 511.999 511.999;" xml:space="preserve">
<g>
	<g>
		<path style="fill:#fff;" d="M414.431,98.436H283.412l48.298-75.039c4.537-7.049,2.501-16.443-4.549-20.979c-7.049-4.537-16.443-2.501-20.979,4.549
			l-50.181,77.965L205.819,6.966c-4.537-7.049-13.931-9.086-20.979-4.549c-7.049,4.538-9.087,13.931-4.549,20.979l48.298,75.039
			H97.568c-37.636,0-68.255,30.618-68.255,68.255v277.054c0,37.636,30.62,68.255,68.255,68.255h316.863
			c37.636,0,68.255-30.618,68.255-68.255V166.691C482.687,129.054,452.068,98.436,414.431,98.436z M414.432,481.64H97.568
			c-20.895,0-37.896-17-37.896-37.896V166.691c0-20.895,17-37.896,37.896-37.896h316.863c20.895,0,37.896,16.999,37.896,37.896
			v277.054h0.001C452.328,464.64,435.327,481.64,414.432,481.64z"/>
	</g>
</g>
<g>
	<g>
		<path style="fill:#fff;" d="M412.162,155.754H99.837c-8.383,0-15.18,6.796-15.18,15.18v218.691c0,8.383,6.796,15.18,15.18,15.18h312.325
			c8.383,0,15.18-6.796,15.18-15.18V170.934C427.342,162.551,420.546,155.754,412.162,155.754z M396.983,374.445H115.017V186.113
			h281.966V374.445z"/>
	</g>
</g>
<g>
	<g>
		<path style="fill:#fff;" d="M132.879,425.615h-26.331c-8.383,0-15.18,6.797-15.18,15.18c0,8.383,6.797,15.18,15.18,15.18h26.331
			c8.383,0,15.18-6.797,15.18-15.18C148.059,432.411,141.262,425.615,132.879,425.615z"/>
	</g>
</g>
<g>
	<g>
		<path style="fill:#fff;" d="M203.718,425.615h-26.331c-8.383,0-15.18,6.797-15.18,15.18c0,8.383,6.796,15.18,15.18,15.18h26.331
			c8.383,0,15.18-6.797,15.18-15.18C218.897,432.411,212.101,425.615,203.718,425.615z"/>
	</g>
</g>
<g>
	<g>
		<path style="fill:#fff;" d="M274.556,425.615h-26.331c-8.383,0-15.18,6.797-15.18,15.18c0,8.383,6.796,15.18,15.18,15.18h26.331
			c8.383,0,15.18-6.797,15.18-15.18C289.736,432.411,282.94,425.615,274.556,425.615z"/>
	</g>
</g>
<g>
	<g>
		<path style="fill:#fff;" d="M405.452,425.615h-86.368c-8.383,0-15.18,6.797-15.18,15.18c0,8.383,6.796,15.18,15.18,15.18h86.368
			c8.383,0,15.18-6.797,15.18-15.18C420.632,432.411,413.835,425.615,405.452,425.615z"/>
	</g>
</g>
<g>
</g>
<g>
</g>
<g>
</g>
<g>
</g>
<g>
</g>
<g>
</g>
<g>
</g>
<g>
</g>
<g>
</g>
<g>
</g>
<g>
</g>
<g>
</g>
<g>
</g>
<g>
</g>
<g>
</g>
</svg>
