<?xml version="1.0" encoding="UTF-8" standalone="no"?>
<!DOCTYPE svg PUBLIC "-//W3C//DTD SVG 1.1//EN" "http://www.w3.org/Graphics/SVG/1.1/DTD/svg11.dtd">
<svg version="1.1" xmlns="http://www.w3.org/2000/svg" xmlns:xlink="http://www.w3.org/1999/xlink" preserveAspectRatio="xMidYMid meet" viewBox="0 0 18 18" width="18" height="18"><defs><path d="M11.08 2.23L11.6 2.51L12.06 2.88L12.45 3.34L12.74 3.87L12.93 4.45L13 5.08L13 8.83L13.05 9.04L13.11 9.24L13.17 9.43L13.25 9.63L13.33 9.82L13.42 10.01L13.52 10.19L13.62 10.37L13.65 10.42L13.66 10.47L13.67 10.53L13.66 10.58L13.65 10.64L13.63 10.69L13.61 10.74L13.57 10.78L12.24 12.14L12.21 12.17L12.19 12.19L12.16 12.2L12.13 12.22L12.1 12.23L12.07 12.24L12.03 12.24L12 12.24L11.98 12.24L11.97 12.24L11.95 12.24L11.93 12.24L11.92 12.23L11.9 12.23L11.88 12.22L11.87 12.22L11.7 12.13L11.53 12.05L11.37 11.95L11.22 11.85L11.06 11.74L10.92 11.63L10.77 11.5L10.64 11.38L10.35 11.6L10.05 11.79L9.73 11.96L9.4 12.08L9.06 12.18L8.71 12.23L8.36 12.26L8 12.24L7.48 12.19L6.95 12.03L6.44 11.79L5.98 11.46L5.59 11.05L5.28 10.59L5.08 10.07L5 9.52L5.08 8.77L5.32 8.12L5.72 7.56L6.29 7.1L7.03 6.72L7.95 6.44L9.04 6.24L10.33 6.12L10.31 5.78L10.27 5.5L10.21 5.26L10.11 5.07L9.98 4.92L9.81 4.82L9.6 4.76L9.33 4.74L9.11 4.75L8.92 4.78L8.77 4.83L8.65 4.9L8.55 5.01L8.47 5.14L8.39 5.32L8.32 5.53L8.3 5.58L8.27 5.63L8.23 5.67L8.19 5.71L8.14 5.73L8.09 5.75L8.04 5.76L7.98 5.76L7.72 5.73L7.47 5.7L7.21 5.66L6.95 5.62L6.7 5.57L6.44 5.52L6.19 5.47L5.93 5.42L5.93 5.41L5.92 5.41L5.85 5.39L5.8 5.35L5.75 5.31L5.71 5.25L5.69 5.19L5.67 5.13L5.67 5.06L5.68 4.99L5.92 4.29L6.23 3.68L6.61 3.17L7.07 2.75L7.6 2.43L8.21 2.2L8.9 2.06L9.67 2.01L9.69 2.01L9.72 2.01L9.75 2.01L9.77 2.01L9.8 2L9.83 2L9.85 2L9.88 2L10.5 2.05L11.08 2.23ZM9.27 7.66L8.62 7.93L8.02 8.32L7.87 8.51L7.76 8.72L7.69 8.94L7.67 9.18L7.85 10.11L8.23 10.62L8.67 10.84L9 10.88L9.26 10.83L9.55 10.71L9.87 10.53L10.24 10.27L10.61 9.73L10.87 9.12L11 8.47L11 7.8L10.97 7.67L10.9 7.56L10.79 7.5L10.67 7.47L9.96 7.5L9.27 7.66Z" id="c10WN9hb8N"></path><path d="M15 11.9C14.86 11.9 14.73 11.95 14.62 12.03C10.13 13.85 6.2 13.52 1.5 10.92C1.34 10.83 1.13 10.89 1.04 11.05C0.97 11.19 0.99 11.36 1.1 11.47C3.44 13.82 6.03 15 8.85 15C11.04 14.94 13.18 14.35 15.09 13.26C15.42 13.21 15.67 12.92 15.67 12.58C15.67 12.21 15.37 11.9 15 11.9Z" id="g2e7rMm2iD"></path><path d="M13.43 11.32C13.3 11.46 13.31 11.67 13.44 11.8C13.57 11.93 13.77 11.93 13.9 11.8C14.44 11.26 15.65 11.36 16.32 11.49C16.26 12.25 16.04 13.44 15.55 13.63C15.37 13.7 15.29 13.89 15.35 14.07C15.41 14.25 15.6 14.34 15.78 14.27C15.78 14.27 15.78 14.27 15.78 14.27C16.91 13.83 16.99 11.49 17 11.23C17 11.07 16.9 10.93 16.75 10.89C16.66 10.87 14.44 10.28 13.43 11.32Z" id="bExQDRh2v"></path></defs><g><g><g><use xlink:href="#c10WN9hb8N" opacity="1" fill="#161719" fill-opacity="1"></use><g><use xlink:href="#c10WN9hb8N" opacity="1" fill-opacity="0" stroke="#000000" stroke-width="1" stroke-opacity="0"></use></g></g><g><use xlink:href="#g2e7rMm2iD" opacity="1" fill="#161719" fill-opacity="1"></use><g><use xlink:href="#g2e7rMm2iD" opacity="1" fill-opacity="0" stroke="#000000" stroke-width="1" stroke-opacity="0"></use></g></g><g><use xlink:href="#bExQDRh2v" opacity="1" fill="#161719" fill-opacity="1"></use><g><use xlink:href="#bExQDRh2v" opacity="1" fill-opacity="0" stroke="#000000" stroke-width="1" stroke-opacity="0"></use></g></g></g></g></svg>