<?xml version="1.0" encoding="UTF-8" standalone="no"?>
<!DOCTYPE svg PUBLIC "-//W3C//DTD SVG 1.1//EN" "http://www.w3.org/Graphics/SVG/1.1/DTD/svg11.dtd">
<svg version="1.1" xmlns="http://www.w3.org/2000/svg" xmlns:xlink="http://www.w3.org/1999/xlink" preserveAspectRatio="xMidYMid meet" viewBox="0 0 18 18" width="18" height="18"><defs><path d="M10.67 15L6 3L8.33 3L13 15L10.67 15Z" id="aukP3X87I"></path><path d="M13 3C13 3 13 3 13 3C13 10.2 13 14.2 13 15C13 15 13 15 13 15C11.6 15 10.82 15 10.67 15C10.67 15 10.67 15 10.67 15C10.67 7.8 10.67 3.8 10.67 3C10.67 3 10.67 3 10.67 3C12.07 3 12.84 3 13 3Z" id="b1CWNPJGTf"></path><path d="M8.33 3C8.33 3 8.33 3 8.33 3C8.33 10.2 8.33 14.2 8.33 15C8.33 15 8.33 15 8.33 15C6.93 15 6.16 15 6 15C6 15 6 15 6 15C6 7.8 6 3.8 6 3C6 3 6 3 6 3C7.4 3 8.18 3 8.33 3Z" id="a1oK2TxJLs"></path></defs><g><g><g><use xlink:href="#aukP3X87I" opacity="1" fill="#2370bd" fill-opacity="1"></use><g><use xlink:href="#aukP3X87I" opacity="1" fill-opacity="0" stroke="#000000" stroke-width="1" stroke-opacity="0"></use></g></g><g><use xlink:href="#b1CWNPJGTf" opacity="1" fill="#2370bd" fill-opacity="1"></use><g><use xlink:href="#b1CWNPJGTf" opacity="1" fill-opacity="0" stroke="#000000" stroke-width="1" stroke-opacity="0"></use></g></g><g><use xlink:href="#a1oK2TxJLs" opacity="1" fill="#2370bd" fill-opacity="1"></use><g><use xlink:href="#a1oK2TxJLs" opacity="1" fill-opacity="0" stroke="#000000" stroke-width="1" stroke-opacity="0"></use></g></g></g></g></svg>