<?xml version="1.0" encoding="UTF-8" standalone="no"?>
<!DOCTYPE svg PUBLIC "-//W3C//DTD SVG 1.1//EN" "http://www.w3.org/Graphics/SVG/1.1/DTD/svg11.dtd">
<svg version="1.1" xmlns="http://www.w3.org/2000/svg" xmlns:xlink="http://www.w3.org/1999/xlink" preserveAspectRatio="xMidYMid meet" viewBox="0 0 24 32" width="24" height="32"><defs><path d="M15 32L3 0L9 0L21 32L15 32Z" id="a2UmCp4i"></path><path d="M9 0C9 0 9 0 9 0C9 19.2 9 29.87 9 32C9 32 9 32 9 32C5.4 32 3.4 32 3 32C3 32 3 32 3 32C3 12.8 3 2.13 3 0C3 0 3 0 3 0C6.6 0 8.6 0 9 0Z" id="aa0XOlXR4"></path><path d="M21 0C21 0 21 0 21 0C21 19.2 21 29.87 21 32C21 32 21 32 21 32C17.4 32 15.4 32 15 32C15 32 15 32 15 32C15 12.8 15 2.13 15 0C15 0 15 0 15 0C18.6 0 20.6 0 21 0Z" id="a3ZjWoxbJC"></path></defs><g><g><g><use xlink:href="#a2UmCp4i" opacity="1" fill="#4f545d" fill-opacity="1"></use><g><use xlink:href="#a2UmCp4i" opacity="1" fill-opacity="0" stroke="#000000" stroke-width="1" stroke-opacity="0"></use></g></g><g><use xlink:href="#aa0XOlXR4" opacity="1" fill="#161719" fill-opacity="1"></use><g><use xlink:href="#aa0XOlXR4" opacity="1" fill-opacity="0" stroke="#000000" stroke-width="1" stroke-opacity="0"></use></g></g><g><use xlink:href="#a3ZjWoxbJC" opacity="1" fill="#161719" fill-opacity="1"></use><g><use xlink:href="#a3ZjWoxbJC" opacity="1" fill-opacity="0" stroke="#000000" stroke-width="1" stroke-opacity="0"></use></g></g></g></g></svg>