<?xml version="1.0" encoding="iso-8859-1"?>
<!-- Generator: Adobe Illustrator 19.0.0, SVG Export Plug-In . SVG Version: 6.00 Build 0)  -->
<svg version="1.1" id="Capa_1" xmlns="http://www.w3.org/2000/svg" xmlns:xlink="http://www.w3.org/1999/xlink" x="0px" y="0px"
	 viewBox="0 0 512 512" style="enable-background:new 0 0 512 512;" xml:space="preserve">
<g>
	<g>
		<path style="fill:#fff;" d="M347.476,362.983c-45.753-7.684-78.961-46.995-78.961-93.471s33.208-85.789,78.961-93.473
			c6.286-1.056,11.219-5.969,12.299-12.25s-1.928-12.56-7.499-15.655c-20.482-11.377-43.751-17.391-67.29-17.391
			c-76.517,0-138.768,62.251-138.768,138.768s62.251,138.768,138.768,138.768c23.539,0,46.808-6.014,67.29-17.391
			c5.571-3.095,8.579-9.374,7.499-15.655S353.762,364.039,347.476,362.983z M284.986,378.276
			c-59.975,0-108.768-48.793-108.768-108.768c0-59.975,48.793-108.768,108.768-108.768c5.123,0,10.228,0.363,15.273,1.078
			c-11.947,7.004-22.751,16-31.881,26.688c-19.258,22.546-29.863,51.314-29.863,81.003c0,29.689,10.605,58.456,29.863,81.002
			c9.13,10.688,19.934,19.685,31.881,26.688C295.212,377.913,290.109,378.276,284.986,378.276z"/>
	</g>
</g>
<g>
	<g>
		<path style="fill:#fff;" d="M382.65,20.913h-3.829v-3.83c0-8.284-6.716-15-15-15s-15,6.716-15,15v3.83h-3.83c-8.284,0-15,6.716-15,15s6.716,15,15,15
			h3.83v3.83c0,8.284,6.716,15,15,15s15-6.716,15-15v-3.83h3.829c8.284,0,15-6.716,15-15S390.934,20.913,382.65,20.913z"/>
	</g>
</g>
<g>
	<g>
		<path style="fill:#fff;" d="M156.803,20.912h-3.83v-3.83c0-8.284-6.716-15-15-15s-15,6.716-15,15v3.83h-3.829c-8.284,0-15,6.716-15,15s6.716,15,15,15
			h3.829v3.83c0,8.284,6.716,15,15,15s15-6.716,15-15v-3.83h3.83c8.284,0,15-6.716,15-15S165.087,20.912,156.803,20.912z"/>
	</g>
</g>
<g>
	<g>
		<path style="fill:#fff;" d="M497,253.134h-3.829v-3.83c0-8.284-6.716-15-15-15s-15,6.716-15,15v3.83h-3.83c-8.284,0-15,6.716-15,15s6.716,15,15,15
			h3.83v3.83c0,8.284,6.716,15,15,15s15-6.716,15-15v-3.83H497c8.284,0,15-6.716,15-15S505.284,253.134,497,253.134z"/>
	</g>
</g>
<g>
	<g>
		<path style="fill:#fff;" d="M119.144,461.089h-3.829v-3.83c0-8.284-6.716-15-15-15s-15,6.716-15,15v3.83h-3.83c-8.284,0-15,6.716-15,15
			s6.716,15,15,15h3.83v3.83c0,8.284,6.716,15,15,15s15-6.716,15-15v-3.83h3.829c8.284,0,15-6.716,15-15
			S127.428,461.089,119.144,461.089z"/>
	</g>
</g>
<g>
	<g>
		<path style="fill:#fff;" d="M427.595,461.089h-3.829v-3.83c0-8.284-6.716-15-15-15s-15,6.716-15,15v3.83h-3.83c-8.284,0-15,6.716-15,15
			s6.716,15,15,15h3.83v3.83c0,8.284,6.716,15,15,15s15-6.716,15-15v-3.83h3.829c8.284,0,15-6.716,15-15
			S435.879,461.089,427.595,461.089z"/>
	</g>
</g>
<g>
	<g>
		<path style="fill:#fff;" d="M52.659,254.509h-3.83v-3.83c0-8.284-6.716-15-15-15s-15,6.716-15,15v3.83H15c-8.284,0-15,6.716-15,15s6.716,15,15,15
			h3.829v3.829c0,8.284,6.716,15,15,15c8.284,0,15-6.716,15-15v-3.829h3.83c8.284,0,15-6.716,15-15S60.943,254.509,52.659,254.509z"
			/>
	</g>
</g>
<g>
</g>
<g>
</g>
<g>
</g>
<g>
</g>
<g>
</g>
<g>
</g>
<g>
</g>
<g>
</g>
<g>
</g>
<g>
</g>
<g>
</g>
<g>
</g>
<g>
</g>
<g>
</g>
<g>
</g>
</svg>
