<?xml version="1.0" encoding="UTF-8" standalone="no"?>
<!DOCTYPE svg PUBLIC "-//W3C//DTD SVG 1.1//EN" "http://www.w3.org/Graphics/SVG/1.1/DTD/svg11.dtd">
<svg version="1.1" xmlns="http://www.w3.org/2000/svg" xmlns:xlink="http://www.w3.org/1999/xlink" preserveAspectRatio="xMidYMid meet" viewBox="0 0 18 18" width="18" height="18"><defs><path d="M11.92 2.01L11.98 2.04L12.04 2.07L12.09 2.1L12.13 2.15L12.17 2.19L12.2 2.25L12.23 2.3L12.25 2.36L12.26 2.42L12.26 2.48L12.25 2.54L12.24 2.6L12.22 2.66L12.19 2.72L10.66 5.31L14.98 5.31L15.12 5.32L15.25 5.34L15.38 5.39L15.5 5.45L15.6 5.53L15.7 5.61L15.79 5.71L15.86 5.82L15.92 5.94L15.96 6.07L15.99 6.21L16 6.35L16 14.95L15.99 15.1L15.96 15.23L15.92 15.36L15.86 15.48L15.79 15.59L15.7 15.69L15.6 15.78L15.5 15.85L15.38 15.91L15.25 15.96L15.12 15.99L14.98 16L3.01 16L2.88 15.99L2.75 15.96L2.62 15.91L2.5 15.85L2.39 15.78L2.3 15.69L2.21 15.59L2.14 15.48L2.08 15.36L2.04 15.23L2.01 15.1L2 14.95L2 6.35L2.01 6.21L2.04 6.07L2.08 5.94L2.14 5.82L2.21 5.71L2.3 5.61L2.39 5.53L2.5 5.45L2.62 5.39L2.75 5.34L2.88 5.32L3.01 5.31L7.34 5.31L5.81 2.72L5.78 2.66L5.76 2.6L5.74 2.54L5.74 2.48L5.74 2.42L5.75 2.36L5.77 2.3L5.79 2.25L5.83 2.19L5.86 2.15L5.91 2.1L5.96 2.07L6.02 2.04L6.07 2.01L6.13 2L6.19 2L6.25 2L6.31 2.01L6.37 2.03L6.42 2.05L6.47 2.09L6.52 2.13L6.56 2.17L6.6 2.22L8.43 5.31L9.57 5.31L11.4 2.22L11.44 2.17L11.48 2.13L11.53 2.09L11.58 2.05L11.63 2.03L11.69 2.01L11.75 2L11.8 2L11.86 2L11.92 2.01ZM4.02 7.06L3.87 7.14L3.75 7.27L3.68 7.42L3.65 7.6L3.65 13.7L3.68 13.88L3.75 14.04L3.87 14.16L4.02 14.24L4.2 14.27L11.26 14.27L11.38 14.25L11.5 14.18L11.61 14.07L11.72 13.91L11.82 13.7L11.82 7.6L11.79 7.42L11.71 7.27L11.59 7.14L11.44 7.06L11.26 7.03L4.2 7.03L4.02 7.06ZM13.18 11.84L12.98 12.16L12.9 12.54L12.98 12.92L13.18 13.23L13.49 13.44L13.86 13.52L14.23 13.44L14.54 13.23L14.74 12.92L14.82 12.54L14.74 12.16L14.54 11.84L14.23 11.63L13.86 11.56L13.49 11.63L13.18 11.84ZM13.18 8.07L12.98 8.38L12.9 8.76L12.98 9.15L13.18 9.46L13.49 9.67L13.86 9.75L14.23 9.67L14.54 9.46L14.74 9.15L14.82 8.76L14.74 8.38L14.54 8.07L14.23 7.86L13.86 7.78L13.49 7.86L13.18 8.07Z" id="ccASwnNyS"></path></defs><g><g><g><use xlink:href="#ccASwnNyS" opacity="1" fill="#161719" fill-opacity="1"></use><g><use xlink:href="#ccASwnNyS" opacity="1" fill-opacity="0" stroke="#000000" stroke-width="1" stroke-opacity="0"></use></g></g></g></g></svg>