<?xml version="1.0" encoding="utf-8"?>
<!-- Generator: Adobe Illustrator 16.0.0, SVG Export Plug-In . SVG Version: 6.00 Build 0)  -->
<!DOCTYPE svg PUBLIC "-//W3C//DTD SVG 1.1//EN" "http://www.w3.org/Graphics/SVG/1.1/DTD/svg11.dtd">
<svg version="1.1" id="Layer_1" xmlns="http://www.w3.org/2000/svg" xmlns:xlink="http://www.w3.org/1999/xlink" x="0px" y="0px"
	 width="58px" height="100px" viewBox="0 0 585.447 1000" enable-background="new 0 0 585.447 1000" xml:space="preserve">
<g>
	<path fill-rule="evenodd" clip-rule="evenodd" fill="#B1060F" d="M66.827,90.294v409.464c0,225.219,0.214,409.683,0.539,410.007
		c0.324,0.324,14.239-1.076,31.067-2.912c16.828-1.833,40.019-4.203,51.562-5.175c17.69-1.509,70.762-4.85,76.804-4.958
		c1.833,0,1.94-9.163,2.157-173.468l0.322-173.062l-0.106-0.299v0.216L66.827,90.294L66.827,90.294z"/>
	<polygon fill-rule="evenodd" clip-rule="evenodd" fill="#9D030F" points="229.092,643.652 229.276,550.191 229.17,549.893 
		229.17,550.108 66.827,90.294 229.092,643.652 	"/>
	<path fill-rule="evenodd" clip-rule="evenodd" fill="#B1060F" d="M357.535,90.834l-0.324,181.122l-0.323,181.016l160.94,456.686
		c-0.092,0.092-0.518,0.139-1.213,0.148c0.804,0,1.302-0.047,1.429-0.148c0.54-0.433,0.648-184.789,0.54-409.792L518.26,90.834
		H357.535L357.535,90.834z"/>
	<polygon fill-rule="evenodd" clip-rule="evenodd" fill="#9D030F" points="357.059,361.421 356.888,452.972 510.948,890.137 
		357.059,361.421 	"/>
	<path fill-rule="evenodd" clip-rule="evenodd" fill="#E50914" d="M66.827,90.294L229.17,550.108v-0.216l12.837,36.226
		c71.302,201.714,109.595,309.955,109.811,310.171c0.108,0.107,10.896,0.756,23.946,1.4c39.481,1.94,88.452,6.146,125.669,10.78
		c8.521,1.08,15.964,1.62,16.396,1.188l-160.94-456.688v0.108L342,411.033c-14.563-41.077-24.27-68.569-82.843-233.951
		c-15.748-44.526-29.125-82.152-29.663-83.877l-1.08-3.019H147.62L66.827,90.294L66.827,90.294z"/>
</g>
</svg>
